<mxfile host="app.diagrams.net" agent="Mozilla/5.0 (Windows NT 10.0; Win64; x64; rv:128.0) Gecko/20100101 Firefox/128.0" version="26.1.1">
  <diagram name="Page-1" id="NITGyK9_nb3LK5T_A7IY">
    <mxGraphModel dx="1434" dy="1027" grid="1" gridSize="10" guides="1" tooltips="1" connect="1" arrows="1" fold="1" page="1" pageScale="1" pageWidth="827" pageHeight="583" math="0" shadow="0">
      <root>
        <mxCell id="0" />
        <mxCell id="1" parent="0" />
        <mxCell id="alT88D5_HlGsF1Vf3wGT-1" value="" style="sketch=0;pointerEvents=1;shadow=0;dashed=0;html=1;strokeColor=none;fillColor=#505050;labelPosition=center;verticalLabelPosition=bottom;verticalAlign=top;outlineConnect=0;align=center;shape=mxgraph.office.devices.laptop;" vertex="1" parent="1">
          <mxGeometry x="30" y="209" width="230" height="210" as="geometry" />
        </mxCell>
        <mxCell id="alT88D5_HlGsF1Vf3wGT-2" value="DÃ©bogueur de l&#39;IDE" style="rounded=0;whiteSpace=wrap;html=1;" vertex="1" parent="1">
          <mxGeometry x="65" y="239" width="150" height="60" as="geometry" />
        </mxCell>
        <mxCell id="alT88D5_HlGsF1Vf3wGT-3" value="" style="rounded=0;whiteSpace=wrap;html=1;strokeWidth=4;" vertex="1" parent="1">
          <mxGeometry x="627.5" y="89" width="170" height="310" as="geometry" />
        </mxCell>
        <mxCell id="alT88D5_HlGsF1Vf3wGT-4" value="Serveur 192.168.0.82" style="rounded=0;whiteSpace=wrap;html=1;strokeColor=none;" vertex="1" parent="1">
          <mxGeometry x="627.5" y="404" width="165" height="20" as="geometry" />
        </mxCell>
        <mxCell id="alT88D5_HlGsF1Vf3wGT-5" value="" style="shape=cylinder3;whiteSpace=wrap;html=1;boundedLbl=1;backgroundOutline=1;size=15;rotation=90;" vertex="1" parent="1">
          <mxGeometry x="421" y="80" width="36" height="494" as="geometry" />
        </mxCell>
        <mxCell id="alT88D5_HlGsF1Vf3wGT-6" value="Tunnel SSH" style="rounded=0;whiteSpace=wrap;html=1;strokeColor=none;" vertex="1" parent="1">
          <mxGeometry x="360" y="349" width="165" height="20" as="geometry" />
        </mxCell>
        <mxCell id="alT88D5_HlGsF1Vf3wGT-7" value="&lt;div&gt;Port&lt;/div&gt;&lt;div&gt;50005&lt;br&gt;&lt;/div&gt;" style="shape=hexagon;perimeter=hexagonPerimeter2;whiteSpace=wrap;html=1;fixedSize=1;" vertex="1" parent="1">
          <mxGeometry x="150" y="319" width="70" height="50" as="geometry" />
        </mxCell>
        <mxCell id="alT88D5_HlGsF1Vf3wGT-8" value="&lt;div&gt;Port&lt;/div&gt;&lt;div&gt;5005&lt;br&gt;&lt;/div&gt;" style="shape=hexagon;perimeter=hexagonPerimeter2;whiteSpace=wrap;html=1;fixedSize=1;" vertex="1" parent="1">
          <mxGeometry x="640" y="279" width="70" height="50" as="geometry" />
        </mxCell>
        <mxCell id="alT88D5_HlGsF1Vf3wGT-10" value="&lt;div&gt;&lt;br&gt;&lt;/div&gt;&lt;div&gt;&lt;br&gt;&lt;/div&gt;&lt;div&gt;&lt;br&gt;&lt;/div&gt;&lt;div&gt;&lt;br&gt;&lt;/div&gt;&lt;div&gt;&lt;br&gt;&lt;/div&gt;&lt;div&gt;&lt;br&gt;&lt;/div&gt;&lt;div&gt;&lt;br&gt;&lt;/div&gt;&lt;div&gt;&lt;br&gt;&lt;/div&gt;&lt;div&gt;JVM distante&lt;/div&gt;" style="whiteSpace=wrap;html=1;aspect=fixed;strokeWidth=2;" vertex="1" parent="1">
          <mxGeometry x="637.5" y="109" width="150" height="150" as="geometry" />
        </mxCell>
        <mxCell id="alT88D5_HlGsF1Vf3wGT-11" value="&lt;div&gt;Application java&lt;/div&gt;&lt;div&gt;test&lt;br&gt;&lt;/div&gt;" style="rounded=0;whiteSpace=wrap;html=1;strokeWidth=2;" vertex="1" parent="1">
          <mxGeometry x="650" y="119" width="120" height="60" as="geometry" />
        </mxCell>
      </root>
    </mxGraphModel>
  </diagram>
</mxfile>
